<svg width="13" height="13" viewBox="0 0 13 13" fill="none" xmlns="http://www.w3.org/2000/svg">
<path fill-rule="evenodd" clip-rule="evenodd" d="M10.54 1H2.54004C2.2639 1 2.04004 1.22386 2.04004 1.5V11.5C2.04004 11.7761 2.2639 12 2.54004 12H10.54C10.8162 12 11.04 11.7761 11.04 11.5V1.5C11.04 1.22386 10.8162 1 10.54 1ZM2.54004 0C1.71161 0 1.04004 0.671573 1.04004 1.5V11.5C1.04004 12.3284 1.71161 13 2.54004 13H10.54C11.3685 13 12.04 12.3284 12.04 11.5V1.5C12.04 0.671573 11.3685 0 10.54 0H2.54004Z" fill="black"/>
<path fill-rule="evenodd" clip-rule="evenodd" d="M10.54 1H2.54004C2.2639 1 2.04004 1.22386 2.04004 1.5V2.5C2.04004 2.77614 2.2639 3 2.54004 3H10.54C10.8162 3 11.04 2.77614 11.04 2.5V1.5C11.04 1.22386 10.8162 1 10.54 1ZM2.54004 0C1.71161 0 1.04004 0.671573 1.04004 1.5V2.5C1.04004 3.32843 1.71161 4 2.54004 4H10.54C11.3685 4 12.04 3.32843 12.04 2.5V1.5C12.04 0.671573 11.3685 0 10.54 0H2.54004Z" fill="black"/>
<path d="M5.04004 5.70833C5.04004 5.84843 4.99605 5.98538 4.91364 6.10186C4.83123 6.21835 4.7141 6.30914 4.57705 6.36275C4.44001 6.41636 4.28921 6.43039 4.14372 6.40306C3.99824 6.37573 3.8646 6.30826 3.75971 6.2092C3.65482 6.11014 3.58339 5.98393 3.55445 5.84652C3.52551 5.70912 3.54036 5.5667 3.59713 5.43727C3.6539 5.30783 3.75002 5.19721 3.87336 5.11938C3.9967 5.04154 4.1417 5 4.29004 5C4.48895 5 4.67972 5.07463 4.82037 5.20747C4.96102 5.3403 5.04004 5.52047 5.04004 5.70833ZM7.29004 5.70833C7.29004 5.84843 7.24605 5.98538 7.16364 6.10186C7.08123 6.21835 6.9641 6.30914 6.82705 6.36275C6.69001 6.41636 6.53921 6.43039 6.39372 6.40306C6.24824 6.37573 6.1146 6.30826 6.00971 6.2092C5.90482 6.11014 5.83339 5.98393 5.80445 5.84652C5.77551 5.70912 5.79036 5.5667 5.84713 5.43727C5.90389 5.30783 6.00002 5.19721 6.12336 5.11938C6.2467 5.04154 6.3917 5 6.54004 5C6.73895 5 6.92972 5.07463 7.07037 5.20747C7.21102 5.3403 7.29004 5.52047 7.29004 5.70833ZM9.54004 5.70833C9.54004 5.84843 9.49605 5.98538 9.41364 6.10186C9.33123 6.21835 9.2141 6.30914 9.07705 6.36275C8.94001 6.41636 8.78921 6.43039 8.64372 6.40306C8.49823 6.37573 8.3646 6.30826 8.25971 6.2092C8.15482 6.11014 8.08339 5.98393 8.05445 5.84652C8.02551 5.70912 8.04036 5.5667 8.09713 5.43727C8.15389 5.30783 8.25002 5.19721 8.37336 5.11938C8.4967 5.04154 8.6417 5 8.79004 5C8.98895 5 9.17972 5.07463 9.32037 5.20747C9.46102 5.3403 9.54004 5.52047 9.54004 5.70833ZM5.04004 7.83333C5.04004 7.97343 4.99605 8.11038 4.91364 8.22686C4.83123 8.34335 4.7141 8.43414 4.57705 8.48775C4.44001 8.54136 4.28921 8.55539 4.14372 8.52806C3.99824 8.50072 3.8646 8.43326 3.75971 8.3342C3.65482 8.23514 3.58339 8.10892 3.55445 7.97152C3.52551 7.83412 3.54036 7.6917 3.59713 7.56227C3.6539 7.43283 3.75002 7.32221 3.87336 7.24438C3.9967 7.16654 4.1417 7.125 4.29004 7.125C4.48895 7.125 4.67972 7.19963 4.82037 7.33247C4.96102 7.4653 5.04004 7.64547 5.04004 7.83333ZM7.29004 7.83333C7.29004 7.97343 7.24605 8.11038 7.16364 8.22686C7.08123 8.34335 6.9641 8.43414 6.82705 8.48775C6.69001 8.54136 6.53921 8.55539 6.39372 8.52806C6.24824 8.50072 6.1146 8.43326 6.00971 8.3342C5.90482 8.23514 5.83339 8.10892 5.80445 7.97152C5.77551 7.83412 5.79036 7.6917 5.84713 7.56227C5.90389 7.43283 6.00002 7.32221 6.12336 7.24438C6.2467 7.16654 6.3917 7.125 6.54004 7.125C6.73895 7.125 6.92972 7.19963 7.07037 7.33247C7.21102 7.4653 7.29004 7.64547 7.29004 7.83333ZM9.54004 7.83333C9.54004 7.97343 9.49605 8.11038 9.41364 8.22686C9.33123 8.34335 9.2141 8.43414 9.07705 8.48775C8.94001 8.54136 8.78921 8.55539 8.64372 8.52806C8.49823 8.50072 8.3646 8.43326 8.25971 8.3342C8.15482 8.23514 8.08339 8.10892 8.05445 7.97152C8.02551 7.83412 8.04036 7.6917 8.09713 7.56227C8.15389 7.43283 8.25002 7.32221 8.37336 7.24438C8.4967 7.16654 8.6417 7.125 8.79004 7.125C8.98895 7.125 9.17972 7.19963 9.32037 7.33247C9.46102 7.4653 9.54004 7.64547 9.54004 7.83333ZM5.04004 9.95833C5.04004 10.0984 4.99605 10.2354 4.91364 10.3519C4.83123 10.4683 4.7141 10.5591 4.57705 10.6127C4.44001 10.6664 4.28921 10.6804 4.14372 10.6531C3.99824 10.6257 3.8646 10.5583 3.75971 10.4592C3.65482 10.3601 3.58339 10.2339 3.55445 10.0965C3.52551 9.95912 3.54036 9.8167 3.59713 9.68727C3.6539 9.55784 3.75002 9.44721 3.87336 9.36938C3.9967 9.29154 4.1417 9.25 4.29004 9.25C4.48895 9.25 4.67972 9.32463 4.82037 9.45747C4.96102 9.5903 5.04004 9.77047 5.04004 9.95833ZM7.29004 9.95833C7.29004 10.0984 7.24605 10.2354 7.16364 10.3519C7.08123 10.4683 6.9641 10.5591 6.82705 10.6127C6.69001 10.6664 6.53921 10.6804 6.39372 10.6531C6.24824 10.6257 6.1146 10.5583 6.00971 10.4592C5.90482 10.3601 5.83339 10.2339 5.80445 10.0965C5.77551 9.95912 5.79036 9.8167 5.84713 9.68727C5.90389 9.55784 6.00002 9.44721 6.12336 9.36938C6.2467 9.29154 6.3917 9.25 6.54004 9.25C6.73895 9.25 6.92972 9.32463 7.07037 9.45747C7.21102 9.5903 7.29004 9.77047 7.29004 9.95833ZM9.54004 9.95833C9.54004 10.0984 9.49605 10.2354 9.41364 10.3519C9.33123 10.4683 9.2141 10.5591 9.07705 10.6127C8.94001 10.6664 8.78921 10.6804 8.64372 10.6531C8.49823 10.6257 8.3646 10.5583 8.25971 10.4592C8.15482 10.3601 8.08339 10.2339 8.05445 10.0965C8.02551 9.95912 8.04036 9.8167 8.09713 9.68727C8.15389 9.55784 8.25002 9.44721 8.37336 9.36938C8.4967 9.29154 8.6417 9.25 8.79004 9.25C8.98895 9.25 9.17972 9.32463 9.32037 9.45747C9.46102 9.5903 9.54004 9.77047 9.54004 9.95833Z" fill="black"/>
</svg>
