<svg width="13" height="13" viewBox="0 0 13 13" fill="none" xmlns="http://www.w3.org/2000/svg">
<path fill-rule="evenodd" clip-rule="evenodd" d="M6.5 0C2.91567 0 0 2.91567 0 6.5C0 10.0843 2.91567 13 6.5 13C10.0843 13 13 10.0843 13 6.5C13 2.91567 10.0843 0 6.5 0ZM6.5 0.928571C9.58253 0.928571 12.0714 3.41747 12.0714 6.5C12.0714 9.58253 9.58253 12.0714 6.5 12.0714C3.41747 12.0714 0.928571 9.58253 0.928571 6.5C0.928571 3.41747 3.41747 0.928571 6.5 0.928571Z" fill="black"/>
<path fill-rule="evenodd" clip-rule="evenodd" d="M9.27503 3.25014C9.19975 3.25177 9.12599 3.27169 9.06012 3.30818C9.06012 3.30818 6.72601 4.60511 5.82646 5.10455C5.82646 5.10486 5.82646 5.10516 5.82646 5.10547C5.52381 5.2741 5.27419 5.52373 5.10556 5.82637C5.10525 5.82637 5.10494 5.82637 5.10463 5.82637C4.6052 6.72593 3.30827 9.06003 3.30827 9.06003C3.20665 9.24143 3.23801 9.46827 3.38503 9.61529C3.53206 9.76232 3.7589 9.79368 3.9403 9.69206C3.9403 9.69206 6.2744 8.39513 7.17396 7.89569C7.17396 7.89538 7.17396 7.89507 7.17396 7.89476C7.47661 7.72614 7.72623 7.47651 7.89485 7.17387C7.89516 7.17387 7.89547 7.17387 7.89578 7.17387C8.39521 6.27431 9.69215 3.94021 9.69215 3.94021C9.77322 3.79461 9.77004 3.61674 9.68383 3.47413C9.59763 3.33152 9.44161 3.24603 9.27502 3.25014H9.27503ZM8.08985 4.91052C7.6777 5.6524 7.36333 6.21888 7.08328 6.72323C6.99842 6.87506 6.87433 6.99948 6.72237 7.08414C6.21778 7.36429 5.652 7.67787 4.91059 8.08978C5.32249 7.34836 5.63608 6.78259 5.91623 6.278C6.0009 6.12604 6.12532 6.00195 6.27714 5.91709L6.27807 5.91616C6.78265 5.63601 7.34843 5.32243 8.08985 4.91052Z" fill="black"/>
</svg>
