<svg width="28" height="28" viewBox="0 0 28 28" fill="none" xmlns="http://www.w3.org/2000/svg">
<path d="M27.2054 5.42253C26.9085 4.01863 25.664 3 24.2469 3C24.0346 3 23.8206 3.02281 23.6114 3.06807C21.9792 3.42106 20.9349 5.05199 21.2838 6.70432C21.4448 7.46364 21.8835 8.10857 22.4763 8.54227L19.1449 15.3951C19.0422 15.3842 18.9392 15.3769 18.8345 15.3769C18.6219 15.3769 18.4079 15.3997 18.1987 15.4449C17.8963 15.5106 17.6112 15.6204 17.349 15.7692L11.7638 10.5465C12.1325 9.89284 12.2525 9.13597 12.0954 8.3942C11.7989 6.98994 10.5548 5.97097 9.13759 5.97097C8.92498 5.97097 8.71098 5.99377 8.50184 6.03939C6.86962 6.39238 5.82529 8.02331 6.17421 9.67564C6.33063 10.4157 6.75204 11.0469 7.32224 11.4803L4.29852 18.2927C4.21042 18.2847 4.12128 18.2805 4.03145 18.2805C3.81884 18.2805 3.60484 18.3033 3.3957 18.3485C2.60491 18.5194 1.92719 18.9921 1.4874 19.6791C1.04761 20.3658 0.898817 21.1848 1.06807 21.9844C1.36462 23.3883 2.60872 24.4073 4.0259 24.4073C4.23886 24.4073 4.45286 24.3845 4.662 24.3392C5.45279 24.1684 6.13051 23.6957 6.5703 23.009C7.01009 22.3223 7.15888 21.5034 6.98963 20.703C6.8391 19.9914 6.4444 19.3798 5.90819 18.9485L8.95238 12.0897C9.01203 12.0936 9.07204 12.0978 9.13273 12.0978C9.345 12.0978 9.55899 12.075 9.76814 12.0301C10.0297 11.9736 10.2769 11.8813 10.509 11.762L16.1437 17.0316C15.8198 17.6615 15.7226 18.3787 15.8714 19.0819C16.168 20.4858 17.4124 21.5044 18.83 21.5044C19.0426 21.5044 19.2562 21.4816 19.4654 21.4363C20.2565 21.2655 20.9342 20.7928 21.374 20.1061C21.8138 19.4194 21.9622 18.6005 21.793 17.8008C21.6459 17.105 21.2654 16.5039 20.7473 16.0744L24.1272 9.12229C24.1653 9.12369 24.2038 9.12755 24.2423 9.12755C24.4546 9.12755 24.6686 9.10474 24.8781 9.05948C26.5103 8.70578 27.5543 7.07451 27.2054 5.42253ZM5.11497 22.0557C4.92733 22.349 4.63772 22.5504 4.29921 22.6237C3.60935 22.7736 2.90978 22.3083 2.76341 21.6177C2.69127 21.276 2.75509 20.9261 2.94273 20.6328C3.13071 20.3391 3.42032 20.1377 3.75849 20.0644C3.84901 20.0447 3.94058 20.0349 4.03145 20.0349C4.16464 20.0349 4.29297 20.0591 4.41505 20.0988C4.42372 20.1033 4.43135 20.1093 4.44037 20.1135C4.47159 20.1275 4.50384 20.1349 4.53541 20.1451C4.91138 20.3096 5.20411 20.6472 5.29394 21.0704C5.36643 21.4121 5.30261 21.7623 5.11497 22.0557ZM7.87024 9.30896C7.7211 8.60297 8.16714 7.90611 8.86463 7.75488C8.95515 7.73523 9.04672 7.7254 9.13759 7.7254C9.74213 7.7254 10.2728 8.16086 10.4001 8.76123C10.4722 9.10299 10.4084 9.45282 10.2208 9.74617C10.0328 10.0399 9.74351 10.2413 9.40535 10.3146C8.71237 10.4644 8.01592 9.99845 7.87024 9.30896ZM19.918 19.1524C19.7303 19.4458 19.4407 19.6475 19.1026 19.7209C18.4106 19.87 17.7124 19.4051 17.5664 18.7149C17.4943 18.3727 17.5581 18.0229 17.7457 17.7292C17.9337 17.4359 18.2233 17.2345 18.5615 17.1611C18.652 17.1415 18.7436 17.1317 18.8345 17.1317C19.439 17.1317 19.97 17.5671 20.0973 18.1675C20.1694 18.5092 20.106 18.8591 19.918 19.1524ZM24.5153 7.34364C23.8234 7.49417 23.1252 7.02749 22.9795 6.33764C22.8304 5.63166 23.2764 4.93479 23.9735 4.78356C24.0641 4.76391 24.1556 4.75444 24.2465 4.75444C24.8514 4.75444 25.3824 5.18989 25.5093 5.78956C25.6588 6.49554 25.2125 7.19241 24.5153 7.34364Z" fill="black"/>
</svg>
