<svg id="Layer_1" data-name="Layer 1" xmlns="http://www.w3.org/2000/svg" viewBox="0 0 360 360"><defs><style>.cls-1{fill:#5985bb;}.cls-2{fill:#2a647b;}.cls-3{fill:#1e3d51;}</style></defs><polygon class="cls-1" points="107.91 271.66 120.78 292.89 94.93 292.34 107.91 271.66"/><polygon class="cls-2" points="2.01 292.34 24.88 335.12 120.23 169.17 98.01 127.93 2.01 292.34"/><polygon class="cls-1" points="169.61 128.04 98.01 128.04 120.23 169.17 193.36 169.17 169.61 128.04"/><polygon class="cls-3" points="145.63 335.12 120.78 292.89 94.93 292.34 145.63 211.29 193.36 211.29 204.25 191.38 193.36 169.17 120.23 169.17 24.88 335.12 145.63 335.12"/><polygon class="cls-2" points="157.07 24.88 98.01 128.04 145.63 128.04 157.07 110.44 204.25 191.38 180.94 231.52 193.36 252.2 217.67 252.2 251.21 188.85 157.07 24.88"/><polygon class="cls-1" points="157.07 24.88 251.21 188.85 300.15 189.07 206.23 24.88 157.07 24.88"/><polygon class="cls-3" points="264.3 252.2 300.15 189.07 251.21 188.85 217.67 252.2 264.3 252.2"/><polygon class="cls-1" points="169.39 211.29 193.36 252.2 288.6 252.2 275.95 231.52 300.15 189.07 357.99 292.67 169.39 292.67 132.99 231.52 145.63 211.29 169.39 211.29"/><polygon class="cls-3" points="169.39 292.67 145.63 335.12 335.78 335.12 357.99 292.67 169.39 292.67"/><polygon class="cls-2" points="132.99 231.52 169.39 292.67 145.63 335.12 107.91 271.66 132.99 231.52"/><polygon class="cls-2" points="275.95 231.52 288.6 252.2 264.3 252.2 275.95 231.52"/><polygon class="cls-3" points="157.07 110.44 145.63 127.93 167.3 127.93 157.07 110.44"/></svg>