<svg width="13" height="13" viewBox="0 0 13 13" fill="none" xmlns="http://www.w3.org/2000/svg">
<g clip-path="url(#clip0)">
<path fill-rule="evenodd" clip-rule="evenodd" d="M8.32447 1.06502C8.44656 1.14213 8.5206 1.27645 8.5206 1.42086V9.77964C8.5206 9.91024 8.45997 10.0334 8.35649 10.1131C8.25301 10.1928 8.11841 10.2199 7.99215 10.1865L3.1987 8.91902L3.7139 11.63C3.73731 11.7532 3.70458 11.8804 3.62463 11.977C3.54467 12.0736 3.42582 12.1295 3.30044 12.1295H1.22074C0.988309 12.1295 0.799883 11.941 0.799883 11.7086V8.59305H0.420862C0.188426 8.59305 0 8.40462 0 8.17218V4.31429C0 4.08185 0.188426 3.89342 0.420862 3.89342H1.92558L7.91887 1.04085C8.04926 0.978788 8.20237 0.987912 8.32447 1.06502ZM1.59977 4.73515H0.841723V7.75132H1.59977V4.73515ZM1.64161 8.59305V11.2877H2.79207L2.29658 8.68048L1.96593 8.59305H1.64161ZM2.44149 7.84814L7.67888 9.23303V2.08728L2.44149 4.58007V7.84814ZM11.9161 1.12256C12.0809 1.28652 12.0815 1.55299 11.9175 1.71774L10.6377 3.00371C10.4738 3.16846 10.2073 3.1691 10.0425 3.00514C9.87778 2.84117 9.87715 2.5747 10.0411 2.40995L11.3209 1.12398C11.4849 0.959232 11.7514 0.958593 11.9161 1.12256ZM9.91855 5.60025C9.91855 5.36782 10.107 5.17939 10.3394 5.17939H12.5791C12.8115 5.17939 12.9999 5.36782 12.9999 5.60025C12.9999 5.83269 12.8115 6.02111 12.5791 6.02111H10.3394C10.107 6.02111 9.91855 5.83269 9.91855 5.60025ZM9.98528 8.11398C10.1109 7.9184 10.3712 7.86166 10.5668 7.98726L12.8065 9.42551C13.0021 9.55111 13.0588 9.81147 12.9332 10.0071C12.8076 10.2026 12.5473 10.2594 12.3517 10.1338L10.112 8.69552C9.91642 8.56992 9.85969 8.30956 9.98528 8.11398Z" fill="black"/>
</g>
<defs>
<clipPath id="clip0">
<rect width="13" height="13" fill="white"/>
</clipPath>
</defs>
</svg>
