<svg width="96" height="96" viewBox="0 0 96 96" fill="none" xmlns="http://www.w3.org/2000/svg">
<path d="M1.05385 88.2345L26.2038 58.7945L36.8538 69.4145L7.38385 94.5645C6.55662 95.2346 5.51818 95.589 4.45385 95.5645V95.5645C3.60181 95.5576 2.76931 95.3085 2.0536 94.8461C1.33788 94.3837 0.768506 93.7273 0.411972 92.9534C0.0554383 92.1795 -0.0735311 91.3201 0.0401287 90.4757C0.153789 89.6312 0.505385 88.8366 1.05385 88.1845V88.2345ZM57.9238 76.2345C58.5929 76.9044 59.4469 77.359 60.3763 77.54C61.3056 77.7211 62.2678 77.6203 63.1394 77.2506C64.011 76.8809 64.7523 76.2591 65.268 75.4651C65.7837 74.6711 66.0504 73.7411 66.0339 72.7945V56.5845L92.6839 40.3745C93.4085 39.9551 94.0373 39.3887 94.5299 38.7118C95.0225 38.0348 95.3679 37.2622 95.5441 36.4438C95.7202 35.6253 95.7231 34.779 95.5525 33.9593C95.382 33.1397 95.0418 32.3648 94.5538 31.6845L63.9938 1.12448C63.3135 0.636517 62.5386 0.29633 61.719 0.125794C60.8993 -0.0447425 60.053 -0.0418537 59.2346 0.134274C58.4161 0.310402 57.6435 0.655871 56.9666 1.14847C56.2896 1.64106 55.7232 2.26988 55.3038 2.99448L39.0938 29.6445H22.8538C21.9057 29.6359 20.9767 29.9112 20.1864 30.435C19.3961 30.9589 18.7806 31.7072 18.4192 32.5838C18.0578 33.4604 17.967 34.4251 18.1586 35.3537C18.3501 36.2823 18.8151 37.1324 19.4938 37.7945L57.9238 76.2345Z" fill="#3A2BAC"/>
</svg>
