<svg width="13" height="13" viewBox="0 0 13 13" fill="none" xmlns="http://www.w3.org/2000/svg">
<path fill-rule="evenodd" clip-rule="evenodd" d="M9.06448 0.0944163C9.26876 -0.0605552 9.55999 -0.0205823 9.71496 0.183698L12.0411 3.24994L9.71496 6.31618C9.55999 6.52046 9.26876 6.56044 9.06448 6.40547C8.8602 6.25049 8.82023 5.95926 8.9752 5.75498L10.5234 3.71421H1.2443C0.987892 3.71421 0.780029 3.50635 0.780029 3.24994C0.780029 2.99353 0.987892 2.78567 1.2443 2.78567H10.5234L8.9752 0.7449C8.82023 0.540619 8.8602 0.249388 9.06448 0.0944163Z" fill="black"/>
<path fill-rule="evenodd" clip-rule="evenodd" d="M3.94822 12.9056C3.74394 13.0606 3.4527 13.0206 3.29773 12.8163L0.971616 9.75006L3.29773 6.68382C3.4527 6.47954 3.74394 6.43956 3.94822 6.59453C4.1525 6.74951 4.19247 7.04074 4.0375 7.24502L2.48933 9.28579L11.7684 9.28579C12.0248 9.28579 12.2327 9.49365 12.2327 9.75006C12.2327 10.0065 12.0248 10.2143 11.7684 10.2143L2.48933 10.2143L4.0375 12.2551C4.19247 12.4594 4.1525 12.7506 3.94822 12.9056Z" fill="black"/>
</svg>
