<svg width="13" height="13" viewBox="0 0 13 13" fill="none" xmlns="http://www.w3.org/2000/svg">
<path fill-rule="evenodd" clip-rule="evenodd" d="M9.52436 1.05393L3.90623 3.15753H9.52436V1.05393ZM10.4947 3.15753V0.739033C10.4947 0.222073 9.9691 -0.134843 9.47841 0.0488859L1.09276 3.18872C0.904487 3.25922 0.780029 3.43694 0.780029 3.63529V12.5222C0.780029 12.7861 0.997241 13 1.26519 13H11.8504C12.1184 13 12.3356 12.7861 12.3356 12.5222V3.63529C12.3356 3.37143 12.1184 3.15753 11.8504 3.15753H10.4947ZM1.75034 4.11305H11.3653V5.96394H8.62883C8.36089 5.96394 8.14368 6.17784 8.14368 6.4417V8.78037C8.14368 9.04423 8.36089 9.25812 8.62883 9.25812H11.3653V12.0445H1.75034V4.11305ZM11.3653 8.30261V6.91945H9.11399V8.30261H11.3653Z" fill="black"/>
</svg>
