<svg width="13" height="13" viewBox="0 0 13 13" fill="none" xmlns="http://www.w3.org/2000/svg">
<path d="M12.9667 2.18486C12.8198 1.49821 12.2041 1 11.5028 1C11.3978 1 11.2919 1.01115 11.1884 1.03329C10.3808 1.20594 9.86403 2.00363 10.0367 2.81178C10.1163 3.18317 10.3334 3.4986 10.6267 3.71073L8.97831 7.06245C8.92751 7.05713 8.87654 7.05353 8.82471 7.05353C8.7195 7.05353 8.61362 7.06468 8.51013 7.08682C8.36048 7.11891 8.21941 7.17263 8.08966 7.24539L5.32608 4.69101C5.50851 4.37129 5.56789 4.00111 5.49015 3.6383C5.34341 2.95148 4.72781 2.4531 4.02658 2.4531C3.92137 2.4531 3.81548 2.46425 3.712 2.48657C2.90436 2.65921 2.38761 3.4569 2.56026 4.26506C2.63766 4.627 2.84618 4.93574 3.12832 5.14769L1.63214 8.47968C1.58855 8.47573 1.54445 8.47367 1.5 8.47367C1.3948 8.47367 1.28891 8.48483 1.18542 8.50697C0.794129 8.59055 0.458784 8.82172 0.241171 9.15775C0.0235581 9.49361 -0.0500666 9.89417 0.0336836 10.2853C0.180418 10.9719 0.796016 11.4703 1.49725 11.4703C1.60263 11.4703 1.70852 11.4592 1.812 11.437C2.20329 11.3534 2.53864 11.1223 2.75625 10.7864C2.97386 10.4506 3.04749 10.05 2.96374 9.65853C2.88926 9.31049 2.69395 9.01136 2.42863 8.80044L3.93493 5.4458C3.96445 5.44768 3.99414 5.44974 4.02417 5.44974C4.1292 5.44974 4.23509 5.43859 4.33858 5.41662C4.46798 5.38899 4.59035 5.34385 4.70516 5.2855L7.49328 7.86288C7.33299 8.17094 7.28494 8.52173 7.35856 8.86565C7.5053 9.5523 8.12107 10.0505 8.82248 10.0505C8.92768 10.0505 9.0334 10.0394 9.13688 10.0172C9.52835 9.93364 9.86369 9.70247 10.0813 9.36661C10.2989 9.03075 10.3724 8.63019 10.2886 8.23907C10.2159 7.89875 10.0276 7.60477 9.77119 7.3947L11.4436 3.99441C11.4625 3.9951 11.4815 3.99699 11.5006 3.99699C11.6056 3.99699 11.7115 3.98583 11.8152 3.96369C12.6228 3.7907 13.1394 2.99284 12.9667 2.18486ZM2.03614 10.3201C1.94329 10.4636 1.79999 10.5621 1.63249 10.598C1.29114 10.6713 0.944982 10.4437 0.872558 10.1059C0.836861 9.93879 0.868439 9.76768 0.961285 9.62421C1.0543 9.48056 1.19761 9.38205 1.36493 9.34619C1.40973 9.33657 1.45503 9.33177 1.5 9.33177C1.5659 9.33177 1.6294 9.34361 1.68981 9.363C1.6941 9.36523 1.69788 9.36815 1.70234 9.37021C1.71778 9.37708 1.73374 9.38068 1.74936 9.38566C1.9354 9.46615 2.08024 9.63125 2.12469 9.83822C2.16056 10.0054 2.12898 10.1767 2.03614 10.3201ZM3.39948 4.08571C3.32568 3.74042 3.54639 3.39958 3.89151 3.32561C3.9363 3.316 3.98161 3.3112 4.02658 3.3112C4.32571 3.3112 4.58829 3.52418 4.65127 3.81782C4.68697 3.98497 4.65539 4.15608 4.56254 4.29955C4.46953 4.4432 4.3264 4.54171 4.15907 4.57757C3.81617 4.65086 3.47156 4.42294 3.39948 4.08571ZM9.36085 8.90015C9.268 9.04362 9.1247 9.1423 8.95737 9.17817C8.61499 9.25111 8.26952 9.02371 8.19727 8.68614C8.16157 8.51881 8.19315 8.3477 8.28599 8.20406C8.37901 8.06059 8.52231 7.96208 8.68964 7.92621C8.73444 7.9166 8.77974 7.91179 8.82471 7.91179C9.12384 7.91179 9.38659 8.12477 9.44957 8.41841C9.48527 8.58557 9.45386 8.75667 9.36085 8.90015ZM11.6357 3.12447C11.2933 3.1981 10.9478 2.96985 10.8757 2.63244C10.8019 2.28714 11.0226 1.94631 11.3676 1.87234C11.4124 1.86273 11.4577 1.8581 11.5027 1.8581C11.802 1.8581 12.0647 2.07108 12.1275 2.36437C12.2015 2.70967 11.9806 3.05051 11.6357 3.12447Z" fill="white"/>
</svg>
